<?xml version="1.0" encoding="UTF-8"?>
<!DOCTYPE svg PUBLIC "-//W3C//DTD SVG 1.1//EN" "http://www.w3.org/Graphics/SVG/1.1/DTD/svg11.dtd">
<!-- Creator: CorelDRAW 2019 (64-Bit) -->
<svg xmlns="http://www.w3.org/2000/svg" xml:space="preserve" width="62px" height="62px" version="1.1" style="shape-rendering:geometricPrecision; text-rendering:geometricPrecision; image-rendering:optimizeQuality; fill-rule:evenodd; clip-rule:evenodd"
viewBox="0 0 62 62"
 xmlns:xlink="http://www.w3.org/1999/xlink">
 <defs>
  <style type="text/css">
   <![CDATA[
    .fil0 {fill:#9CAFC3}
   ]]>
  </style>
 </defs>
 <g id="Capa_x0020_1">
  <metadata id="CorelCorpID_0Corel-Layer"/>
  <g id="_1481495840320">
   <g id="GIFOS">
    <g id="_00-UI-Kit">
     <g id="_-Nav-Desktop-Sticky">
      <g id="icon-search">
       <g>
        <path class="fil0" d="M26.35 0c14.55,0 26.35,11.8 26.35,26.35 0,6.16 -2.11,11.82 -5.65,16.31l14.04 14.05c1.21,1.21 1.21,3.17 0,4.38 -1.21,1.21 -3.17,1.21 -4.38,0l0 0 -14.05 -14.04c-4.49,3.54 -10.15,5.65 -16.31,5.65 -14.55,0 -26.35,-11.8 -26.35,-26.35 0,-14.55 11.8,-26.35 26.35,-26.35zm0 6.2c-11.13,0 -20.15,9.02 -20.15,20.15 0,11.13 9.02,20.15 20.15,20.15 5.49,0 10.46,-2.2 14.1,-5.75l0.14 -0.16c0.05,-0.05 0.1,-0.1 0.15,-0.15 3.56,-3.63 5.76,-8.6 5.76,-14.09 0,-11.13 -9.02,-20.15 -20.15,-20.15z"/>
       </g>
      </g>
     </g>
    </g>
   </g>
  </g>
 </g>
</svg>
